<svg width="42" height="42" viewBox="0 0 42 42" fill="none" xmlns="http://www.w3.org/2000/svg">
<path d="M31.7292 9.75V9.775M1 11C1 8.34784 2.03601 5.8043 3.88012 3.92893C5.72422 2.05357 8.22537 1 10.8333 1H30.5C33.108 1 35.6091 2.05357 37.4532 3.92893C39.2973 5.8043 40.3333 8.34784 40.3333 11V31C40.3333 33.6522 39.2973 36.1957 37.4532 38.0711C35.6091 39.9464 33.108 41 30.5 41H10.8333C8.22537 41 5.72422 39.9464 3.88012 38.0711C2.03601 36.1957 1 33.6522 1 31V11ZM13.2917 21C13.2917 22.9891 14.0687 24.8968 15.4518 26.3033C16.8348 27.7098 18.7107 28.5 20.6667 28.5C22.6226 28.5 24.4985 27.7098 25.8816 26.3033C27.2647 24.8968 28.0417 22.9891 28.0417 21C28.0417 19.0109 27.2647 17.1032 25.8816 15.6967C24.4985 14.2902 22.6226 13.5 20.6667 13.5C18.7107 13.5 16.8348 14.2902 15.4518 15.6967C14.0687 17.1032 13.2917 19.0109 13.2917 21Z" stroke="#ECC938" stroke-width="2" stroke-linecap="round" stroke-linejoin="round"/>
</svg>
