<svg xmlns="http://www.w3.org/2000/svg" xmlns:xlink="http://www.w3.org/1999/xlink" width="500" zoomAndPan="magnify" viewBox="0 0 375 374.999991" height="500" preserveAspectRatio="xMidYMid meet" version="1.0"><defs><g/></defs><rect x="-37.5" width="450" fill="#ffffff" y="-37.499999" height="449.999989" fill-opacity="1"/><rect x="-37.5" width="450" fill="#000000" y="-37.499999" height="449.999989" fill-opacity="1"/><g fill="#f9db3d" fill-opacity="1"><g transform="translate(84.515682, 260.507296)"><g><path d="M 10.953125 -0.5625 L 10.953125 0 L 2.328125 0 L 2.328125 -12.765625 L 10.703125 -12.765625 L 10.703125 -12.203125 L 2.953125 -12.203125 L 2.953125 -6.765625 L 9.890625 -6.765625 L 9.890625 -6.203125 L 2.953125 -6.203125 L 2.953125 -0.5625 Z M 10.953125 -0.5625 "/></g></g></g><g fill="#f9db3d" fill-opacity="1"><g transform="translate(96.696246, 260.507296)"><g><path d="M 10.34375 0 L 5.75 -6.140625 L 1.125 0 L 0.421875 0 L 5.359375 -6.59375 L 0.765625 -12.765625 L 1.5 -12.765625 L 5.765625 -7.0625 L 10.015625 -12.765625 L 10.703125 -12.765625 L 6.109375 -6.59375 L 11.0625 0 Z M 10.34375 0 "/></g></g></g><g fill="#f9db3d" fill-opacity="1"><g transform="translate(108.183905, 260.507296)"><g><path d="M 4.765625 -12.203125 L 0.078125 -12.203125 L 0.078125 -12.765625 L 10.046875 -12.765625 L 10.046875 -12.203125 L 5.359375 -12.203125 L 5.359375 0 L 4.765625 0 Z M 4.765625 -12.203125 "/></g></g></g><g fill="#f9db3d" fill-opacity="1"><g transform="translate(118.303983, 260.507296)"><g><path d="M 11.3125 0 L 8.15625 -4.390625 C 7.738281 -4.316406 7.273438 -4.28125 6.765625 -4.28125 L 2.953125 -4.28125 L 2.953125 0 L 2.328125 0 L 2.328125 -12.765625 L 6.765625 -12.765625 C 8.359375 -12.765625 9.597656 -12.390625 10.484375 -11.640625 C 11.378906 -10.890625 11.828125 -9.851562 11.828125 -8.53125 C 11.828125 -7.507812 11.5625 -6.65625 11.03125 -5.96875 C 10.507812 -5.28125 9.753906 -4.804688 8.765625 -4.546875 L 12.03125 0 Z M 6.796875 -4.84375 C 8.222656 -4.84375 9.316406 -5.160156 10.078125 -5.796875 C 10.847656 -6.441406 11.234375 -7.351562 11.234375 -8.53125 C 11.234375 -9.695312 10.847656 -10.597656 10.078125 -11.234375 C 9.316406 -11.878906 8.222656 -12.203125 6.796875 -12.203125 L 2.953125 -12.203125 L 2.953125 -4.84375 Z M 6.796875 -4.84375 "/></g></g></g><g fill="#f9db3d" fill-opacity="1"><g transform="translate(131.396263, 260.507296)"><g><path d="M 10.953125 -0.5625 L 10.953125 0 L 2.328125 0 L 2.328125 -12.765625 L 10.703125 -12.765625 L 10.703125 -12.203125 L 2.953125 -12.203125 L 2.953125 -6.765625 L 9.890625 -6.765625 L 9.890625 -6.203125 L 2.953125 -6.203125 L 2.953125 -0.5625 Z M 10.953125 -0.5625 "/></g></g></g><g fill="#f9db3d" fill-opacity="1"><g transform="translate(143.576827, 260.507296)"><g><path d="M 14.5 0 L 14.484375 -11.5 L 8.875 -1.765625 L 8.546875 -1.765625 L 2.9375 -11.46875 L 2.9375 0 L 2.328125 0 L 2.328125 -12.765625 L 2.84375 -12.765625 L 8.71875 -2.546875 L 14.5625 -12.765625 L 15.078125 -12.765625 L 15.09375 0 Z M 14.5 0 "/></g></g></g><g fill="#f9db3d" fill-opacity="1"><g transform="translate(161.00889, 260.507296)"><g><path d="M 10.953125 -0.5625 L 10.953125 0 L 2.328125 0 L 2.328125 -12.765625 L 10.703125 -12.765625 L 10.703125 -12.203125 L 2.953125 -12.203125 L 2.953125 -6.765625 L 9.890625 -6.765625 L 9.890625 -6.203125 L 2.953125 -6.203125 L 2.953125 -0.5625 Z M 10.953125 -0.5625 "/></g></g></g><g fill="#f9db3d" fill-opacity="1"><g transform="translate(173.189454, 260.507296)"><g/></g></g><g fill="#f9db3d" fill-opacity="1"><g transform="translate(177.802751, 260.507296)"><g><path d="M 2.953125 -12.203125 L 2.953125 -6.359375 L 9.890625 -6.359375 L 9.890625 -5.8125 L 2.953125 -5.8125 L 2.953125 0 L 2.328125 0 L 2.328125 -12.765625 L 10.703125 -12.765625 L 10.703125 -12.203125 Z M 2.953125 -12.203125 "/></g></g></g><g fill="#f9db3d" fill-opacity="1"><g transform="translate(189.290409, 260.507296)"><g><path d="M 7.625 0.078125 C 6.382812 0.078125 5.257812 -0.203125 4.25 -0.765625 C 3.25 -1.328125 2.460938 -2.097656 1.890625 -3.078125 C 1.328125 -4.066406 1.046875 -5.164062 1.046875 -6.375 C 1.046875 -7.59375 1.328125 -8.691406 1.890625 -9.671875 C 2.460938 -10.660156 3.25 -11.4375 4.25 -12 C 5.257812 -12.5625 6.382812 -12.84375 7.625 -12.84375 C 8.863281 -12.84375 9.988281 -12.5625 11 -12 C 12.007812 -11.4375 12.796875 -10.660156 13.359375 -9.671875 C 13.929688 -8.691406 14.21875 -7.59375 14.21875 -6.375 C 14.21875 -5.164062 13.929688 -4.066406 13.359375 -3.078125 C 12.796875 -2.097656 12.007812 -1.328125 11 -0.765625 C 9.988281 -0.203125 8.863281 0.078125 7.625 0.078125 Z M 7.625 -0.5 C 8.738281 -0.5 9.75 -0.753906 10.65625 -1.265625 C 11.570312 -1.773438 12.289062 -2.476562 12.8125 -3.375 C 13.34375 -4.269531 13.609375 -5.269531 13.609375 -6.375 C 13.609375 -7.488281 13.34375 -8.492188 12.8125 -9.390625 C 12.289062 -10.285156 11.570312 -10.988281 10.65625 -11.5 C 9.75 -12.007812 8.738281 -12.265625 7.625 -12.265625 C 6.5 -12.265625 5.484375 -12.007812 4.578125 -11.5 C 3.679688 -10.988281 2.96875 -10.285156 2.4375 -9.390625 C 1.914062 -8.492188 1.65625 -7.488281 1.65625 -6.375 C 1.65625 -5.269531 1.914062 -4.269531 2.4375 -3.375 C 2.96875 -2.476562 3.679688 -1.773438 4.578125 -1.265625 C 5.484375 -0.753906 6.5 -0.5 7.625 -0.5 Z M 7.625 -0.5 "/></g></g></g><g fill="#f9db3d" fill-opacity="1"><g transform="translate(204.552581, 260.507296)"><g><path d="M 11.3125 0 L 8.15625 -4.390625 C 7.738281 -4.316406 7.273438 -4.28125 6.765625 -4.28125 L 2.953125 -4.28125 L 2.953125 0 L 2.328125 0 L 2.328125 -12.765625 L 6.765625 -12.765625 C 8.359375 -12.765625 9.597656 -12.390625 10.484375 -11.640625 C 11.378906 -10.890625 11.828125 -9.851562 11.828125 -8.53125 C 11.828125 -7.507812 11.5625 -6.65625 11.03125 -5.96875 C 10.507812 -5.28125 9.753906 -4.804688 8.765625 -4.546875 L 12.03125 0 Z M 6.796875 -4.84375 C 8.222656 -4.84375 9.316406 -5.160156 10.078125 -5.796875 C 10.847656 -6.441406 11.234375 -7.351562 11.234375 -8.53125 C 11.234375 -9.695312 10.847656 -10.597656 10.078125 -11.234375 C 9.316406 -11.878906 8.222656 -12.203125 6.796875 -12.203125 L 2.953125 -12.203125 L 2.953125 -4.84375 Z M 6.796875 -4.84375 "/></g></g></g><g fill="#f9db3d" fill-opacity="1"><g transform="translate(217.644862, 260.507296)"><g><path d="M 14.5 0 L 14.484375 -11.5 L 8.875 -1.765625 L 8.546875 -1.765625 L 2.9375 -11.46875 L 2.9375 0 L 2.328125 0 L 2.328125 -12.765625 L 2.84375 -12.765625 L 8.71875 -2.546875 L 14.5625 -12.765625 L 15.078125 -12.765625 L 15.09375 0 Z M 14.5 0 "/></g></g></g><g fill="#f9db3d" fill-opacity="1"><g transform="translate(235.076924, 260.507296)"><g><path d="M 2.328125 -12.765625 L 2.953125 -12.765625 L 2.953125 0 L 2.328125 0 Z M 2.328125 -12.765625 "/></g></g></g><g fill="#f9db3d" fill-opacity="1"><g transform="translate(240.364896, 260.507296)"><g><path d="M 12.53125 -12.765625 L 12.53125 0 L 12.015625 0 L 2.953125 -11.640625 L 2.953125 0 L 2.328125 0 L 2.328125 -12.765625 L 2.84375 -12.765625 L 11.90625 -1.125 L 11.90625 -12.765625 Z M 12.53125 -12.765625 "/></g></g></g><g fill="#f9db3d" fill-opacity="1"><g transform="translate(255.225906, 260.507296)"><g><path d="M 11.5625 -6.296875 L 12.140625 -6.296875 L 12.140625 -1.5625 C 11.585938 -1.03125 10.921875 -0.625 10.140625 -0.34375 C 9.367188 -0.0625 8.546875 0.078125 7.671875 0.078125 C 6.421875 0.078125 5.289062 -0.203125 4.28125 -0.765625 C 3.269531 -1.328125 2.476562 -2.097656 1.90625 -3.078125 C 1.332031 -4.066406 1.046875 -5.164062 1.046875 -6.375 C 1.046875 -7.59375 1.332031 -8.691406 1.90625 -9.671875 C 2.476562 -10.660156 3.269531 -11.4375 4.28125 -12 C 5.289062 -12.5625 6.421875 -12.84375 7.671875 -12.84375 C 8.585938 -12.84375 9.425781 -12.703125 10.1875 -12.421875 C 10.957031 -12.140625 11.613281 -11.71875 12.15625 -11.15625 L 11.796875 -10.734375 C 10.742188 -11.753906 9.375 -12.265625 7.6875 -12.265625 C 6.550781 -12.265625 5.523438 -12.003906 4.609375 -11.484375 C 3.691406 -10.972656 2.96875 -10.265625 2.4375 -9.359375 C 1.914062 -8.460938 1.65625 -7.46875 1.65625 -6.375 C 1.65625 -5.28125 1.914062 -4.285156 2.4375 -3.390625 C 2.96875 -2.492188 3.691406 -1.785156 4.609375 -1.265625 C 5.523438 -0.753906 6.550781 -0.5 7.6875 -0.5 C 9.28125 -0.5 10.570312 -0.941406 11.5625 -1.828125 Z M 11.5625 -6.296875 "/></g></g></g><g fill="#f9db3d" fill-opacity="1"><g transform="translate(69.9703, 273.508986)"><g/></g></g><g fill="#f9db3d" fill-opacity="1"><g transform="translate(79.075768, 273.508986)"><g><path d="M 3.859375 0.078125 C 3.210938 0.078125 2.628906 -0.0625 2.109375 -0.34375 C 1.585938 -0.632812 1.175781 -1.03125 0.875 -1.53125 C 0.582031 -2.039062 0.4375 -2.609375 0.4375 -3.234375 C 0.4375 -3.859375 0.582031 -4.421875 0.875 -4.921875 C 1.175781 -5.421875 1.585938 -5.8125 2.109375 -6.09375 C 2.640625 -6.382812 3.226562 -6.53125 3.875 -6.53125 C 4.375 -6.53125 4.832031 -6.445312 5.25 -6.28125 C 5.664062 -6.113281 6.023438 -5.863281 6.328125 -5.53125 L 5.71875 -4.953125 C 5.238281 -5.460938 4.632812 -5.71875 3.90625 -5.71875 C 3.425781 -5.71875 2.988281 -5.609375 2.59375 -5.390625 C 2.207031 -5.171875 1.90625 -4.875 1.6875 -4.5 C 1.46875 -4.125 1.359375 -3.703125 1.359375 -3.234375 C 1.359375 -2.765625 1.46875 -2.335938 1.6875 -1.953125 C 1.90625 -1.578125 2.207031 -1.28125 2.59375 -1.0625 C 2.988281 -0.851562 3.425781 -0.75 3.90625 -0.75 C 4.625 -0.75 5.226562 -1.007812 5.71875 -1.53125 L 6.328125 -0.9375 C 6.023438 -0.601562 5.664062 -0.347656 5.25 -0.171875 C 4.832031 -0.00390625 4.367188 0.078125 3.859375 0.078125 Z M 3.859375 0.078125 "/></g></g></g><g fill="#f9db3d" fill-opacity="1"><g transform="translate(92.36713, 273.508986)"><g><path d="M 3.890625 0.078125 C 3.234375 0.078125 2.644531 -0.0625 2.125 -0.34375 C 1.601562 -0.632812 1.191406 -1.03125 0.890625 -1.53125 C 0.585938 -2.039062 0.4375 -2.609375 0.4375 -3.234375 C 0.4375 -3.859375 0.585938 -4.421875 0.890625 -4.921875 C 1.191406 -5.421875 1.601562 -5.8125 2.125 -6.09375 C 2.644531 -6.382812 3.234375 -6.53125 3.890625 -6.53125 C 4.535156 -6.53125 5.117188 -6.382812 5.640625 -6.09375 C 6.160156 -5.8125 6.566406 -5.421875 6.859375 -4.921875 C 7.160156 -4.421875 7.3125 -3.859375 7.3125 -3.234375 C 7.3125 -2.609375 7.160156 -2.039062 6.859375 -1.53125 C 6.566406 -1.03125 6.160156 -0.632812 5.640625 -0.34375 C 5.117188 -0.0625 4.535156 0.078125 3.890625 0.078125 Z M 3.890625 -0.75 C 4.359375 -0.75 4.78125 -0.851562 5.15625 -1.0625 C 5.539062 -1.28125 5.84375 -1.578125 6.0625 -1.953125 C 6.28125 -2.335938 6.390625 -2.765625 6.390625 -3.234375 C 6.390625 -3.703125 6.28125 -4.125 6.0625 -4.5 C 5.84375 -4.875 5.539062 -5.171875 5.15625 -5.390625 C 4.78125 -5.609375 4.359375 -5.71875 3.890625 -5.71875 C 3.410156 -5.71875 2.976562 -5.609375 2.59375 -5.390625 C 2.207031 -5.171875 1.90625 -4.875 1.6875 -4.5 C 1.46875 -4.125 1.359375 -3.703125 1.359375 -3.234375 C 1.359375 -2.765625 1.46875 -2.335938 1.6875 -1.953125 C 1.90625 -1.578125 2.207031 -1.28125 2.59375 -1.0625 C 2.976562 -0.851562 3.410156 -0.75 3.890625 -0.75 Z M 3.890625 -0.75 "/></g></g></g><g fill="#f9db3d" fill-opacity="1"><g transform="translate(106.737544, 273.508986)"><g><path d="M 6.53125 -6.46875 L 6.53125 0 L 5.765625 0 L 1.890625 -4.828125 L 1.890625 0 L 0.96875 0 L 0.96875 -6.46875 L 1.734375 -6.46875 L 5.609375 -1.640625 L 5.609375 -6.46875 Z M 6.53125 -6.46875 "/></g></g></g><g fill="#f9db3d" fill-opacity="1"><g transform="translate(120.849722, 273.508986)"><g><path d="M 2.859375 0.078125 C 2.367188 0.078125 1.894531 0.00390625 1.4375 -0.140625 C 0.988281 -0.296875 0.632812 -0.492188 0.375 -0.734375 L 0.71875 -1.453125 C 0.96875 -1.234375 1.285156 -1.054688 1.671875 -0.921875 C 2.054688 -0.785156 2.453125 -0.71875 2.859375 -0.71875 C 3.390625 -0.71875 3.785156 -0.804688 4.046875 -0.984375 C 4.316406 -1.160156 4.453125 -1.398438 4.453125 -1.703125 C 4.453125 -1.929688 4.378906 -2.113281 4.234375 -2.25 C 4.085938 -2.382812 3.90625 -2.488281 3.6875 -2.5625 C 3.476562 -2.632812 3.179688 -2.71875 2.796875 -2.8125 C 2.304688 -2.925781 1.910156 -3.039062 1.609375 -3.15625 C 1.316406 -3.28125 1.0625 -3.460938 0.84375 -3.703125 C 0.632812 -3.953125 0.53125 -4.28125 0.53125 -4.6875 C 0.53125 -5.03125 0.617188 -5.34375 0.796875 -5.625 C 0.984375 -5.90625 1.257812 -6.125 1.625 -6.28125 C 2 -6.445312 2.460938 -6.53125 3.015625 -6.53125 C 3.390625 -6.53125 3.757812 -6.484375 4.125 -6.390625 C 4.5 -6.296875 4.820312 -6.15625 5.09375 -5.96875 L 4.78125 -5.234375 C 4.507812 -5.398438 4.21875 -5.523438 3.90625 -5.609375 C 3.601562 -5.703125 3.304688 -5.75 3.015625 -5.75 C 2.484375 -5.75 2.085938 -5.65625 1.828125 -5.46875 C 1.566406 -5.28125 1.4375 -5.035156 1.4375 -4.734375 C 1.4375 -4.503906 1.507812 -4.320312 1.65625 -4.1875 C 1.8125 -4.050781 2 -3.941406 2.21875 -3.859375 C 2.4375 -3.785156 2.734375 -3.707031 3.109375 -3.625 C 3.585938 -3.5 3.972656 -3.378906 4.265625 -3.265625 C 4.566406 -3.148438 4.820312 -2.972656 5.03125 -2.734375 C 5.25 -2.492188 5.359375 -2.171875 5.359375 -1.765625 C 5.359375 -1.421875 5.265625 -1.109375 5.078125 -0.828125 C 4.890625 -0.554688 4.609375 -0.335938 4.234375 -0.171875 C 3.859375 -0.00390625 3.398438 0.078125 2.859375 0.078125 Z M 2.859375 0.078125 "/></g></g></g><g fill="#f9db3d" fill-opacity="1"><g transform="translate(133.200368, 273.508986)"><g><path d="M 2.25 -5.65625 L 0.03125 -5.65625 L 0.03125 -6.46875 L 5.390625 -6.46875 L 5.390625 -5.65625 L 3.171875 -5.65625 L 3.171875 0 L 2.25 0 Z M 2.25 -5.65625 "/></g></g></g><g fill="#f9db3d" fill-opacity="1"><g transform="translate(145.237446, 273.508986)"><g><path d="M 5.296875 0 L 3.890625 -1.984375 C 3.722656 -1.972656 3.585938 -1.96875 3.484375 -1.96875 L 1.890625 -1.96875 L 1.890625 0 L 0.96875 0 L 0.96875 -6.46875 L 3.484375 -6.46875 C 4.328125 -6.46875 4.988281 -6.265625 5.46875 -5.859375 C 5.945312 -5.460938 6.1875 -4.910156 6.1875 -4.203125 C 6.1875 -3.710938 6.0625 -3.289062 5.8125 -2.9375 C 5.570312 -2.582031 5.222656 -2.328125 4.765625 -2.171875 L 6.296875 0 Z M 3.46875 -2.75 C 4.050781 -2.75 4.492188 -2.875 4.796875 -3.125 C 5.109375 -3.382812 5.265625 -3.742188 5.265625 -4.203125 C 5.265625 -4.671875 5.109375 -5.03125 4.796875 -5.28125 C 4.492188 -5.53125 4.050781 -5.65625 3.46875 -5.65625 L 1.890625 -5.65625 L 1.890625 -2.75 Z M 3.46875 -2.75 "/></g></g></g><g fill="#f9db3d" fill-opacity="1"><g transform="translate(158.565692, 273.508986)"><g><path d="M 3.640625 0.078125 C 2.785156 0.078125 2.117188 -0.164062 1.640625 -0.65625 C 1.160156 -1.15625 0.921875 -1.863281 0.921875 -2.78125 L 0.921875 -6.46875 L 1.84375 -6.46875 L 1.84375 -2.828125 C 1.84375 -1.441406 2.445312 -0.75 3.65625 -0.75 C 4.25 -0.75 4.703125 -0.914062 5.015625 -1.25 C 5.328125 -1.59375 5.484375 -2.117188 5.484375 -2.828125 L 5.484375 -6.46875 L 6.375 -6.46875 L 6.375 -2.78125 C 6.375 -1.851562 6.132812 -1.144531 5.65625 -0.65625 C 5.175781 -0.164062 4.503906 0.078125 3.640625 0.078125 Z M 3.640625 0.078125 "/></g></g></g><g fill="#f9db3d" fill-opacity="1"><g transform="translate(172.48419, 273.508986)"><g><path d="M 3.859375 0.078125 C 3.210938 0.078125 2.628906 -0.0625 2.109375 -0.34375 C 1.585938 -0.632812 1.175781 -1.03125 0.875 -1.53125 C 0.582031 -2.039062 0.4375 -2.609375 0.4375 -3.234375 C 0.4375 -3.859375 0.582031 -4.421875 0.875 -4.921875 C 1.175781 -5.421875 1.585938 -5.8125 2.109375 -6.09375 C 2.640625 -6.382812 3.226562 -6.53125 3.875 -6.53125 C 4.375 -6.53125 4.832031 -6.445312 5.25 -6.28125 C 5.664062 -6.113281 6.023438 -5.863281 6.328125 -5.53125 L 5.71875 -4.953125 C 5.238281 -5.460938 4.632812 -5.71875 3.90625 -5.71875 C 3.425781 -5.71875 2.988281 -5.609375 2.59375 -5.390625 C 2.207031 -5.171875 1.90625 -4.875 1.6875 -4.5 C 1.46875 -4.125 1.359375 -3.703125 1.359375 -3.234375 C 1.359375 -2.765625 1.46875 -2.335938 1.6875 -1.953125 C 1.90625 -1.578125 2.207031 -1.28125 2.59375 -1.0625 C 2.988281 -0.851562 3.425781 -0.75 3.90625 -0.75 C 4.625 -0.75 5.226562 -1.007812 5.71875 -1.53125 L 6.328125 -0.9375 C 6.023438 -0.601562 5.664062 -0.347656 5.25 -0.171875 C 4.832031 -0.00390625 4.367188 0.078125 3.859375 0.078125 Z M 3.859375 0.078125 "/></g></g></g><g fill="#f9db3d" fill-opacity="1"><g transform="translate(185.775552, 273.508986)"><g><path d="M 2.25 -5.65625 L 0.03125 -5.65625 L 0.03125 -6.46875 L 5.390625 -6.46875 L 5.390625 -5.65625 L 3.171875 -5.65625 L 3.171875 0 L 2.25 0 Z M 2.25 -5.65625 "/></g></g></g><g fill="#f9db3d" fill-opacity="1"><g transform="translate(197.81263, 273.508986)"><g><path d="M 0.96875 -6.46875 L 1.890625 -6.46875 L 1.890625 0 L 0.96875 0 Z M 0.96875 -6.46875 "/></g></g></g><g fill="#f9db3d" fill-opacity="1"><g transform="translate(207.295021, 273.508986)"><g><path d="M 3.890625 0.078125 C 3.234375 0.078125 2.644531 -0.0625 2.125 -0.34375 C 1.601562 -0.632812 1.191406 -1.03125 0.890625 -1.53125 C 0.585938 -2.039062 0.4375 -2.609375 0.4375 -3.234375 C 0.4375 -3.859375 0.585938 -4.421875 0.890625 -4.921875 C 1.191406 -5.421875 1.601562 -5.8125 2.125 -6.09375 C 2.644531 -6.382812 3.234375 -6.53125 3.890625 -6.53125 C 4.535156 -6.53125 5.117188 -6.382812 5.640625 -6.09375 C 6.160156 -5.8125 6.566406 -5.421875 6.859375 -4.921875 C 7.160156 -4.421875 7.3125 -3.859375 7.3125 -3.234375 C 7.3125 -2.609375 7.160156 -2.039062 6.859375 -1.53125 C 6.566406 -1.03125 6.160156 -0.632812 5.640625 -0.34375 C 5.117188 -0.0625 4.535156 0.078125 3.890625 0.078125 Z M 3.890625 -0.75 C 4.359375 -0.75 4.78125 -0.851562 5.15625 -1.0625 C 5.539062 -1.28125 5.84375 -1.578125 6.0625 -1.953125 C 6.28125 -2.335938 6.390625 -2.765625 6.390625 -3.234375 C 6.390625 -3.703125 6.28125 -4.125 6.0625 -4.5 C 5.84375 -4.875 5.539062 -5.171875 5.15625 -5.390625 C 4.78125 -5.609375 4.359375 -5.71875 3.890625 -5.71875 C 3.410156 -5.71875 2.976562 -5.609375 2.59375 -5.390625 C 2.207031 -5.171875 1.90625 -4.875 1.6875 -4.5 C 1.46875 -4.125 1.359375 -3.703125 1.359375 -3.234375 C 1.359375 -2.765625 1.46875 -2.335938 1.6875 -1.953125 C 1.90625 -1.578125 2.207031 -1.28125 2.59375 -1.0625 C 2.976562 -0.851562 3.410156 -0.75 3.890625 -0.75 Z M 3.890625 -0.75 "/></g></g></g><g fill="#f9db3d" fill-opacity="1"><g transform="translate(221.665435, 273.508986)"><g><path d="M 6.53125 -6.46875 L 6.53125 0 L 5.765625 0 L 1.890625 -4.828125 L 1.890625 0 L 0.96875 0 L 0.96875 -6.46875 L 1.734375 -6.46875 L 5.609375 -1.640625 L 5.609375 -6.46875 Z M 6.53125 -6.46875 "/></g></g></g><g fill="#f9db3d" fill-opacity="1"><g transform="translate(235.777612, 273.508986)"><g/></g></g><g fill="#f9db3d" fill-opacity="1"><g transform="translate(244.881879, 273.508986)"><g><path d="M 0.96875 -6.46875 L 1.890625 -6.46875 L 1.890625 0 L 0.96875 0 Z M 0.96875 -6.46875 "/></g></g></g><g fill="#f9db3d" fill-opacity="1"><g transform="translate(254.36427, 273.508986)"><g><path d="M 6.53125 -6.46875 L 6.53125 0 L 5.765625 0 L 1.890625 -4.828125 L 1.890625 0 L 0.96875 0 L 0.96875 -6.46875 L 1.734375 -6.46875 L 5.609375 -1.640625 L 5.609375 -6.46875 Z M 6.53125 -6.46875 "/></g></g></g><g fill="#f9db3d" fill-opacity="1"><g transform="translate(268.476447, 273.508986)"><g><path d="M 3.859375 0.078125 C 3.210938 0.078125 2.628906 -0.0625 2.109375 -0.34375 C 1.585938 -0.632812 1.175781 -1.03125 0.875 -1.53125 C 0.582031 -2.039062 0.4375 -2.609375 0.4375 -3.234375 C 0.4375 -3.859375 0.582031 -4.421875 0.875 -4.921875 C 1.175781 -5.421875 1.585938 -5.8125 2.109375 -6.09375 C 2.640625 -6.382812 3.226562 -6.53125 3.875 -6.53125 C 4.375 -6.53125 4.832031 -6.445312 5.25 -6.28125 C 5.664062 -6.113281 6.023438 -5.863281 6.328125 -5.53125 L 5.71875 -4.953125 C 5.238281 -5.460938 4.632812 -5.71875 3.90625 -5.71875 C 3.425781 -5.71875 2.988281 -5.609375 2.59375 -5.390625 C 2.207031 -5.171875 1.90625 -4.875 1.6875 -4.5 C 1.46875 -4.125 1.359375 -3.703125 1.359375 -3.234375 C 1.359375 -2.765625 1.46875 -2.335938 1.6875 -1.953125 C 1.90625 -1.578125 2.207031 -1.28125 2.59375 -1.0625 C 2.988281 -0.851562 3.425781 -0.75 3.90625 -0.75 C 4.625 -0.75 5.226562 -1.007812 5.71875 -1.53125 L 6.328125 -0.9375 C 6.023438 -0.601562 5.664062 -0.347656 5.25 -0.171875 C 4.832031 -0.00390625 4.367188 0.078125 3.859375 0.078125 Z M 3.859375 0.078125 "/></g></g></g><g fill="#f9db3d" fill-opacity="1"><g transform="translate(281.767809, 273.508986)"><g><path d="M 1.046875 0.0625 C 0.878906 0.0625 0.734375 0 0.609375 -0.125 C 0.484375 -0.25 0.421875 -0.398438 0.421875 -0.578125 C 0.421875 -0.753906 0.484375 -0.898438 0.609375 -1.015625 C 0.734375 -1.140625 0.878906 -1.203125 1.046875 -1.203125 C 1.222656 -1.203125 1.367188 -1.144531 1.484375 -1.03125 C 1.597656 -0.914062 1.65625 -0.765625 1.65625 -0.578125 C 1.65625 -0.398438 1.59375 -0.25 1.46875 -0.125 C 1.351562 0 1.210938 0.0625 1.046875 0.0625 Z M 1.046875 0.0625 "/></g></g></g></svg>