<svg width="244" height="212" viewBox="0 0 244 212" fill="none" xmlns="http://www.w3.org/2000/svg">
<path d="M186.826 84.0231L175.222 81.7389V35.7903C175.222 35.1235 175.841 34.6317 176.479 34.7877L185.88 37.1334C186.332 37.2469 186.653 37.6584 186.653 38.136C186.709 55.719 186.77 66.2178 186.826 84.0231Z" fill="#4E3A18"/>
<path d="M91.4842 86.3168L73.8789 94.9711V8.4132C73.8789 7.75112 74.4842 7.25928 75.1221 7.40589C80.2254 8.60237 85.3286 9.79885 90.4365 10.9953C90.8928 11.1041 91.2188 11.5203 91.2234 12.0026C91.3072 40.5857 91.3957 57.5067 91.4842 86.3168ZM141.823 25.7598C141.818 25.2727 141.478 24.8471 141.003 24.7525C137.246 23.9863 133.484 23.225 129.721 22.4588C129.093 22.3311 128.511 22.8182 128.511 23.4709V76.1632L142.023 74.9053C141.958 55.8373 141.888 44.6008 141.823 25.7598Z" fill="#4E3A18"/>
<mask id="mask0_180_2" style="mask-type:luminance" maskUnits="userSpaceOnUse" x="39" y="0" width="180" height="101">
<path d="M39.3202 0H218.12V100.788H39.3202V0Z" fill="white"/>
</mask>
<g mask="url(#mask0_180_2)">
<path d="M155.047 78.7407C160.583 79.729 164.559 80.8357 168.41 81.9045C173.173 83.2286 177.676 84.4819 184.73 85.4703C190.732 86.312 196.822 86.6998 202.838 86.6336C203.644 86.6242 204.296 85.9479 204.286 85.125C204.277 84.3069 203.621 83.6543 202.82 83.6543C202.815 83.6543 202.806 83.6543 202.801 83.6543C199.039 83.7015 195.244 83.5597 191.458 83.2334V34.7405C191.458 34.7074 191.449 34.679 191.449 34.6459C191.445 34.5939 191.44 34.5371 191.431 34.4851C191.426 34.4378 191.412 34.3953 191.398 34.348C191.389 34.3007 191.375 34.2534 191.356 34.2108C191.337 34.1635 191.319 34.121 191.296 34.0784C191.277 34.0358 191.254 33.9933 191.23 33.9554C191.207 33.9129 191.179 33.875 191.151 33.8372C191.119 33.7994 191.091 33.7615 191.058 33.7284C191.025 33.6906 190.993 33.6622 190.96 33.6291C190.923 33.596 190.886 33.5676 190.849 33.5393C190.811 33.5109 190.769 33.4825 190.727 33.4589C190.686 33.4352 190.648 33.4116 190.606 33.3927C190.555 33.369 190.509 33.3548 190.457 33.3359C190.425 33.3265 190.402 33.3123 190.369 33.3028L172.522 28.4649C172.019 28.3277 171.511 28.4743 171.157 28.8054C171.078 28.8432 170.999 28.8858 170.92 28.9378L161.323 35.9039C161.319 35.9039 161.319 35.9039 161.319 35.9039C161.319 35.9086 161.319 35.9086 161.319 35.9086H161.314C161.021 36.1261 160.83 36.4335 160.751 36.7693C160.732 36.8308 160.723 36.897 160.718 36.9632C160.709 37.0199 160.709 37.0767 160.709 37.1334V76.8443C159.13 76.4896 157.431 76.1396 155.549 75.8086C153.482 75.4397 150.642 74.9337 147.173 74.5317V21.5792C147.173 21.5745 147.173 21.5745 147.173 21.5745V21.5603C147.173 21.5319 147.164 21.5035 147.164 21.4799C147.159 21.409 147.154 21.338 147.14 21.2718C147.136 21.2293 147.117 21.1867 147.103 21.1441C147.089 21.0968 147.08 21.0448 147.061 20.9975C147.043 20.9502 147.015 20.9077 146.991 20.8651C146.973 20.8225 146.954 20.78 146.926 20.7421C146.903 20.7043 146.87 20.6665 146.842 20.6334C146.81 20.5955 146.782 20.553 146.749 20.5199C146.721 20.4868 146.684 20.4584 146.651 20.43C146.609 20.3969 146.577 20.3638 146.535 20.3354C146.493 20.3071 146.447 20.2834 146.405 20.2598C146.363 20.2361 146.325 20.2125 146.288 20.1936C146.223 20.1699 146.158 20.151 146.093 20.1321C146.069 20.1226 146.041 20.1132 146.013 20.1037H146.004C146 20.1037 146 20.1037 146 20.1037L125.079 15.5164C125.07 15.5117 125.056 15.5117 125.042 15.5117C124.991 15.5022 124.935 15.4975 124.879 15.4928C124.837 15.488 124.795 15.4833 124.753 15.4833C124.702 15.4833 124.655 15.4928 124.604 15.4975C124.557 15.5022 124.516 15.507 124.469 15.5164C124.422 15.5259 124.376 15.5401 124.329 15.559C124.287 15.5732 124.241 15.5826 124.199 15.6015C124.157 15.6205 124.12 15.6441 124.078 15.6678C124.031 15.6914 123.985 15.715 123.943 15.7434C123.934 15.7529 123.92 15.7576 123.91 15.7671L112.204 24.4262H112.2C112.2 24.4309 112.2 24.4309 112.2 24.4309H112.195C111.902 24.6532 111.711 24.9653 111.636 25.3058C111.636 25.3058 111.636 25.3058 111.636 25.3105C111.622 25.3625 111.613 25.4146 111.608 25.4713C111.604 25.5281 111.599 25.5895 111.599 25.651V77.0523C105.006 78.769 99.9306 80.7837 96.8807 82.0227V7.63763C96.8807 7.5998 96.8714 7.56669 96.8714 7.53359C96.8668 7.47684 96.8621 7.42009 96.8528 7.36807C96.8435 7.32078 96.8295 7.27821 96.8202 7.23092C96.8062 7.18363 96.7923 7.13634 96.7736 7.09377C96.755 7.04648 96.7364 7.00392 96.7131 6.96136C96.6898 6.9188 96.6712 6.87623 96.6479 6.8384C96.62 6.79584 96.592 6.758 96.5641 6.7249C96.5315 6.68234 96.5036 6.6445 96.471 6.6114C96.4384 6.5783 96.4058 6.54992 96.3732 6.51682C96.3359 6.48371 96.2987 6.45061 96.2568 6.42223C96.2195 6.39386 96.1776 6.37021 96.1357 6.34657C96.0938 6.32292 96.0566 6.29928 96.0147 6.28036C95.9634 6.25671 95.9122 6.24252 95.8564 6.22361C95.8238 6.21415 95.7958 6.19996 95.7632 6.1905L71.2201 0.0804206C71.0106 0.0283995 70.8057 0.0283998 70.6055 0.0662331C70.2284 -0.00943355 69.8233 0.0662331 69.4834 0.31215L50.402 14.1592C50.402 14.1592 50.402 14.1592 50.3974 14.1592V14.1639C50.3927 14.1639 50.3927 14.1639 50.3927 14.1639C50.3927 14.1639 50.3881 14.1639 50.3881 14.1686C50.0901 14.3909 49.8992 14.7077 49.8247 15.0482C49.8154 15.0908 49.806 15.1381 49.8014 15.1806C49.7921 15.2516 49.7874 15.3178 49.7874 15.3887V96.8439C46.826 97 43.8507 97.0189 40.9033 96.8912C40.0884 96.8486 39.4133 97.4918 39.376 98.3147C39.3434 99.1328 39.9674 99.828 40.7776 99.8658C42.1419 99.9226 43.5108 99.9557 44.8844 99.9557C47.9342 99.9557 50.9887 99.8091 54.0153 99.5112L54.7091 99.4449C58.8764 99.0524 66.6384 98.3147 76.2023 94.6307C82.7537 92.1005 85.9246 90.4832 88.993 88.9178C91.4096 87.6882 93.6865 86.5249 97.5233 84.969C102.706 82.8645 114.845 77.9367 130.666 77.0003C141.66 76.3571 150.036 77.8468 155.047 78.7407ZM163.642 76.1727C163.647 76.168 163.656 76.1633 163.665 76.1585L172.973 69.6654C173.639 69.2019 173.807 68.2703 173.35 67.594C172.889 66.9177 171.977 66.7428 171.311 67.2109L163.642 72.5644V67.1211L172.973 60.6138C173.639 60.1456 173.807 59.2186 173.35 58.5424C172.889 57.8614 171.977 57.6911 171.311 58.1546L163.642 63.508V57.6911L172.973 51.1791C173.639 50.7156 173.807 49.7887 173.35 49.1124C172.889 48.4314 171.977 48.2612 171.311 48.7246L163.642 54.078V48.0484C163.656 48.0342 163.675 48.0294 163.693 48.0153L172.973 41.541C173.639 41.0776 173.807 40.1506 173.35 39.4696C172.889 38.7934 171.977 38.6184 171.311 39.0866L163.642 44.44V37.8806L172.414 31.5152L188.525 35.8849V82.9402C187.394 82.8172 186.262 82.68 185.135 82.5193C178.267 81.5592 173.853 80.3297 169.183 79.0291C167.409 78.5373 165.607 78.036 163.642 77.5442V76.1727ZM87.6753 86.26C84.6767 87.7875 81.571 89.3718 75.164 91.8452C67.3927 94.8387 60.8367 95.8082 56.5576 96.2669L70.7079 86.3972C71.3738 85.9337 71.5414 85.0068 71.0851 84.3258C70.6241 83.6495 69.7115 83.4793 69.0457 83.9427L52.7209 95.3353V85.1061L70.7266 72.5454C71.3924 72.0772 71.56 71.1503 71.1037 70.4741C70.6428 69.7978 69.7301 69.6228 69.0643 70.091L52.7209 81.493V71.3442L70.992 58.5991C71.6578 58.1309 71.8301 57.204 71.3691 56.5278C70.9128 55.8468 70.0002 55.6765 69.3297 56.14L52.7209 67.7311V57.4452L70.9408 44.7332C71.6113 44.265 71.7789 43.3381 71.3226 42.6618C70.8616 41.9808 69.949 41.8106 69.2831 42.274L52.7209 53.8321V43.5131L70.9687 30.7822C71.6345 30.3187 71.8022 29.3918 71.3459 28.7108C70.8849 28.0345 69.9769 27.8643 69.3064 28.3277L52.7209 39.9V29.7228L71.0153 16.9541C71.6858 16.4906 71.8534 15.5637 71.3971 14.8827C70.9361 14.2064 70.0235 14.0362 69.3576 14.4997L52.7209 26.1098V16.1359L70.7778 3.03615L93.9473 8.80573V83.2476C91.405 84.3542 89.5797 85.2858 87.6753 86.26ZM114.533 76.3382V74.2527L125.6 66.5299C126.271 66.0618 126.439 65.1348 125.982 64.4586C125.521 63.7776 124.609 63.6073 123.943 64.0708L114.533 70.6396V62.0845L125.6 54.3571C126.271 53.8936 126.439 52.9667 125.982 52.2857C125.521 51.6094 124.609 51.4392 123.943 51.9026L114.533 58.4667V49.8833L125.6 42.1605C126.271 41.6924 126.439 40.7654 125.982 40.0892C125.521 39.4082 124.609 39.2379 123.943 39.7014L114.533 46.2702V37.8192H114.537L125.6 30.0964C126.271 29.6283 126.439 28.7013 125.982 28.0251C125.521 27.3488 124.609 27.1738 123.943 27.642L114.533 34.2061V26.3888L125.102 18.5667L144.239 22.7615V74.2337C140.258 73.8885 135.625 73.7277 130.499 74.0304C124.623 74.3756 119.254 75.2552 114.533 76.3382ZM216.705 100.107C212.947 100.504 209.203 100.703 205.488 100.703C201.032 100.703 196.622 100.419 192.297 99.8469C185.429 98.9342 181.299 97.7661 175.585 96.144C171.725 95.0468 166.915 93.6848 159.931 92.0391L159.801 92.006C152.216 90.2183 145.054 88.53 136.771 88.2132C125.633 87.7875 114.365 89.7927 103.292 94.1767C102.538 94.4746 101.691 94.0963 101.393 93.3301C101.099 92.564 101.472 91.7033 102.226 91.4006C113.676 86.8701 125.335 84.794 136.883 85.2385C145.445 85.5648 152.742 87.2863 160.462 89.107L160.597 89.1354C167.642 90.7953 172.484 92.1715 176.377 93.2734C181.974 94.8624 186.015 96.0116 192.674 96.8912C200.38 97.9127 208.365 97.9978 216.397 97.1466C217.212 97.0614 217.925 97.6526 218.008 98.4707C218.092 99.2889 217.51 100.022 216.705 100.107Z" fill="#EDCA38"/>
</g>
<mask id="mask1_180_2" style="mask-type:luminance" maskUnits="userSpaceOnUse" x="2" y="2" width="168" height="144">
<path d="M2.96423 2.82806H169.844V145.687H2.96423V2.82806Z" fill="white"/>
</mask>
<g mask="url(#mask1_180_2)">
<mask id="mask2_180_2" style="mask-type:luminance" maskUnits="userSpaceOnUse" x="-31" y="2" width="202" height="179">
<path d="M19.0469 2.96997L170.696 99.1801L120.963 180.039L-30.6818 83.8293L19.0469 2.96997Z" fill="white"/>
</mask>
<g mask="url(#mask2_180_2)">
<mask id="mask3_180_2" style="mask-type:luminance" maskUnits="userSpaceOnUse" x="-31" y="2" width="202" height="178">
<path d="M-30.5794 83.6638L121.065 179.869L170.799 99.0099L19.154 2.79974L-30.5794 83.6638Z" fill="white"/>
</mask>
<g mask="url(#mask3_180_2)">
<mask id="mask4_180_2" style="mask-type:luminance" maskUnits="userSpaceOnUse" x="3" y="3" width="167" height="143">
<path d="M20.1132 3.64154C12.9705 12.9344 7.88585 24.0574 5.25041 35.8519C3.92804 41.8296 3.22494 47.8829 3.14113 54.0072C3.06198 60.1314 3.6021 66.199 4.76616 72.2097C6.53088 81.3796 9.62263 90.0576 14.0368 98.2485C14.7724 99.6011 15.5407 100.944 16.3416 102.268C17.1425 103.588 17.9759 104.888 18.8467 106.165C22.3342 111.301 26.306 116.021 30.7527 120.324C32.9737 122.471 35.2972 124.5 37.7184 126.411C40.1397 128.321 42.6587 130.099 45.2476 131.755C47.8411 133.41 50.5278 134.909 53.275 136.29C56.0222 137.671 58.8439 138.891 61.7168 139.983C64.5897 141.062 67.5138 141.993 70.4798 142.774C73.4459 143.554 76.4398 144.173 79.471 144.637C80.9843 144.869 82.4976 145.063 84.0202 145.214C85.5381 145.365 87.0654 145.474 88.588 145.55C97.7748 145.989 106.808 145.006 115.692 142.599C121.522 141.024 127.128 138.858 132.515 136.096C137.898 133.334 142.945 130.038 147.653 126.207C156.937 118.622 164.545 109.102 169.63 98.5039C166.096 103.115 162.208 107.39 157.966 111.344C153.789 115.217 149.305 118.679 144.505 121.719C135.001 127.754 124.744 131.849 113.736 134.006C102.897 136.124 92.0476 136.172 81.1938 134.148C75.8485 133.14 70.6474 131.636 65.5861 129.631C63.0671 128.633 60.5946 127.522 58.1734 126.283C55.7521 125.049 53.3914 123.706 51.0912 122.254C48.7957 120.792 46.5653 119.232 44.4141 117.562C42.2629 115.898 40.1863 114.129 38.198 112.266C34.203 108.525 30.5897 104.439 27.3583 100.003C20.8023 90.9798 16.0808 81.058 13.1986 70.2377C10.2792 59.2424 9.40379 48.0815 10.5725 36.7552C11.1592 31.0423 12.2581 25.4288 13.8552 19.9146C15.4942 14.3153 17.5802 8.89092 20.1132 3.64154Z" fill="white"/>
</mask>
<g mask="url(#mask4_180_2)">
<path d="M-59.9092 106.037L49.8107 -72.3704L232.606 43.5935L122.881 222.006L-59.9092 106.037Z" fill="url(#paint0_linear_180_2)"/>
</g>
</g>
</g>
</g>
<path d="M19.019 195.257V195.938H8.73804V180.483H18.721V181.164H9.48304V187.747H17.7525V188.428H9.48304V195.257H19.019Z" fill="#F9DB3D"/>
<path d="M32.8119 195.938L27.3361 188.504L21.8231 195.938H20.985L26.8705 187.955L21.3947 180.483H22.2701L27.3547 187.388L32.4207 180.483H33.2402L27.7645 187.955L33.6686 195.938H32.8119Z" fill="#F9DB3D"/>
<path d="M39.8561 181.164H34.2686V180.483H46.1513V181.164H40.5638V195.938H39.8561V181.164Z" fill="#F9DB3D"/>
<path d="M59.723 195.938L55.9608 190.623C55.4626 190.712 54.9085 190.755 54.3032 190.755H49.7587V195.938H49.0137V180.483H54.3032C56.2029 180.483 57.679 180.937 58.7359 181.845C59.8022 182.753 60.3377 184.011 60.3377 185.61C60.3377 186.849 60.021 187.88 59.3878 188.712C58.7639 189.544 57.8652 190.121 56.6872 190.433L60.5798 195.938H59.723ZM54.3404 190.074C56.04 190.074 57.3437 189.691 58.2517 188.92C59.169 188.14 59.6299 187.038 59.6299 185.61C59.6299 184.2 59.169 183.108 58.2517 182.337C57.3437 181.557 56.04 181.164 54.3404 181.164H49.7587V190.074H54.3404Z" fill="#F9DB3D"/>
<path d="M74.9007 195.257V195.938H64.6197V180.483H74.6027V181.164H65.3647V187.747H73.6342V188.428H65.3647V195.257H74.9007Z" fill="#F9DB3D"/>
<path d="M93.6478 195.938L93.6292 182.016L86.9428 193.801H86.5517L79.8653 182.053V195.938H79.1389V180.483H79.7535L86.7565 192.855L93.7223 180.483H94.3369L94.3555 195.938H93.6478Z" fill="#F9DB3D"/>
<path d="M110.199 195.257V195.938H99.918V180.483H109.901V181.164H100.663V187.747H108.932V188.428H100.663V195.257H110.199Z" fill="#F9DB3D"/>
<path d="M120.681 181.164V188.239H128.951V188.901H120.681V195.938H119.936V180.483H129.919V181.164H120.681Z" fill="#F9DB3D"/>
<path d="M139.943 196.033C138.463 196.033 137.122 195.692 135.92 195.011C134.728 194.33 133.788 193.399 133.108 192.212C132.437 191.015 132.102 189.686 132.102 188.22C132.102 186.745 132.437 185.416 133.108 184.229C133.788 183.032 134.728 182.091 135.92 181.41C137.122 180.729 138.463 180.389 139.943 180.389C141.419 180.389 142.76 180.729 143.966 181.41C145.168 182.091 146.108 183.032 146.779 184.229C147.459 185.416 147.803 186.745 147.803 188.22C147.803 189.686 147.459 191.015 146.779 192.212C146.108 193.399 145.168 194.33 143.966 195.011C142.76 195.692 141.419 196.033 139.943 196.033ZM139.943 195.333C141.27 195.333 142.476 195.025 143.557 194.406C144.646 193.791 145.503 192.94 146.127 191.852C146.76 190.769 147.077 189.559 147.077 188.22C147.077 186.872 146.76 185.657 146.127 184.569C145.503 183.486 144.646 182.635 143.557 182.016C142.476 181.401 141.27 181.089 139.943 181.089C138.602 181.089 137.392 181.401 136.311 182.016C135.241 182.635 134.393 183.486 133.76 184.569C133.136 185.657 132.829 186.872 132.829 188.22C132.829 189.559 133.136 190.769 133.76 191.852C134.393 192.94 135.241 193.791 136.311 194.406C137.392 195.025 138.602 195.333 139.943 195.333Z" fill="#F9DB3D"/>
<path d="M162.531 195.938L158.769 190.623C158.271 190.712 157.717 190.755 157.112 190.755H152.567V195.938H151.822V180.483H157.112C159.011 180.483 160.487 180.937 161.544 181.845C162.611 182.753 163.146 184.011 163.146 185.61C163.146 186.849 162.829 187.88 162.196 188.712C161.572 189.544 160.674 190.121 159.496 190.433L163.388 195.938H162.531ZM157.149 190.074C158.848 190.074 160.152 189.691 161.06 188.92C161.977 188.14 162.438 187.038 162.438 185.61C162.438 184.2 161.977 183.108 161.06 182.337C160.152 181.557 158.848 181.164 157.149 181.164H152.567V190.074H157.149Z" fill="#F9DB3D"/>
<path d="M181.937 195.938L181.918 182.016L175.232 193.801H174.841L168.154 182.053V195.938H167.428V180.483H168.043L175.046 192.855L182.011 180.483H182.626L182.645 195.938H181.937Z" fill="#F9DB3D"/>
<path d="M188.207 180.483H188.952V195.938H188.207V180.483Z" fill="#F9DB3D"/>
<path d="M206.672 180.483V195.938H206.058L195.255 181.845V195.938H194.51V180.483H195.125L205.927 194.576V180.483H206.672Z" fill="#F9DB3D"/>
<path d="M223.232 188.315H223.921V194.047C223.26 194.69 222.468 195.182 221.537 195.522C220.615 195.863 219.637 196.033 218.594 196.033C217.104 196.033 215.754 195.692 214.553 195.011C213.347 194.33 212.402 193.399 211.722 192.212C211.037 191.015 210.697 189.686 210.697 188.22C210.697 186.745 211.037 185.416 211.722 184.229C212.402 183.032 213.347 182.091 214.553 181.41C215.754 180.729 217.104 180.389 218.594 180.389C219.684 180.389 220.685 180.559 221.593 180.899C222.51 181.24 223.293 181.751 223.94 182.432L223.511 182.942C222.254 181.708 220.625 181.089 218.613 181.089C217.258 181.089 216.033 181.405 214.944 182.034C213.85 182.654 212.988 183.51 212.355 184.607C211.731 185.695 211.424 186.896 211.424 188.22C211.424 189.544 211.731 190.75 212.355 191.833C212.988 192.921 213.85 193.777 214.944 194.406C216.033 195.025 217.258 195.333 218.613 195.333C220.513 195.333 222.049 194.798 223.232 193.725V188.315Z" fill="#F9DB3D"/>
<path d="M4.07888 211.774C3.30594 211.774 2.61216 211.603 1.99288 211.263C1.36894 210.913 0.880031 210.431 0.5215 209.825C0.172281 209.21 0 208.52 0 207.763C0 207.007 0.172281 206.326 0.5215 205.72C0.880031 205.115 1.36894 204.642 1.99288 204.302C2.62613 203.952 3.32456 203.772 4.0975 203.772C4.6935 203.772 5.23828 203.876 5.7365 204.075C6.23006 204.278 6.65844 204.581 7.02163 204.983L6.29525 205.682C5.72253 205.068 5.00081 204.756 4.13475 204.756C3.56203 204.756 3.04053 204.888 2.57025 205.153C2.10928 205.418 1.75075 205.777 1.49 206.231C1.22925 206.685 1.09888 207.196 1.09888 207.763C1.09888 208.331 1.22925 208.851 1.49 209.314C1.75075 209.768 2.10928 210.128 2.57025 210.393C3.04053 210.648 3.56203 210.771 4.13475 210.771C4.9915 210.771 5.70856 210.459 6.29525 209.825L7.02163 210.544C6.65844 210.951 6.23006 211.258 5.7365 211.471C5.23828 211.674 4.68419 211.774 4.07888 211.774Z" fill="#F9DB3D"/>
<path d="M19.9594 211.774C19.1772 211.774 18.4741 211.603 17.8548 211.263C17.2309 210.913 16.742 210.431 16.3834 209.825C16.0203 209.21 15.8433 208.52 15.8433 207.763C15.8433 207.007 16.0203 206.326 16.3834 205.72C16.742 205.115 17.2309 204.642 17.8548 204.302C18.4741 203.952 19.1772 203.772 19.9594 203.772C20.7277 203.772 21.4215 203.952 22.0454 204.302C22.6647 204.642 23.149 205.115 23.4982 205.72C23.8567 206.326 24.0383 207.007 24.0383 207.763C24.0383 208.52 23.8567 209.21 23.4982 209.825C23.149 210.431 22.6647 210.913 22.0454 211.263C21.4215 211.603 20.7277 211.774 19.9594 211.774ZM19.9594 210.771C20.5182 210.771 21.0211 210.648 21.4681 210.393C21.9244 210.128 22.2876 209.768 22.5483 209.314C22.8091 208.851 22.9394 208.331 22.9394 207.763C22.9394 207.196 22.8091 206.685 22.5483 206.231C22.2876 205.777 21.9244 205.418 21.4681 205.153C21.0211 204.888 20.5182 204.756 19.9594 204.756C19.3867 204.756 18.8699 204.888 18.4136 205.153C17.9526 205.418 17.5941 205.777 17.3333 206.231C17.0726 206.685 16.9422 207.196 16.9422 207.763C16.9422 208.331 17.0726 208.851 17.3333 209.314C17.5941 209.768 17.9526 210.128 18.4136 210.393C18.8699 210.648 19.3867 210.771 19.9594 210.771Z" fill="#F9DB3D"/>
<path d="M40.2366 203.848V211.679H39.324L34.705 205.834V211.679H33.6061V203.848H34.5187L39.1377 209.693V203.848H40.2366Z" fill="#F9DB3D"/>
<path d="M52.6815 211.774C52.0948 211.774 51.5314 211.684 50.9866 211.509C50.4511 211.32 50.0274 211.083 49.7201 210.79L50.1298 209.92C50.4278 210.185 50.805 210.402 51.266 210.563C51.7223 210.728 52.1972 210.809 52.6815 210.809C53.3147 210.809 53.785 210.705 54.097 210.487C54.4182 210.274 54.5812 209.986 54.5812 209.617C54.5812 209.343 54.4927 209.121 54.3205 208.955C54.1435 208.794 53.9293 208.667 53.6686 208.577C53.4172 208.492 53.0633 208.388 52.607 208.274C52.0203 208.137 51.55 208 51.1915 207.858C50.8422 207.707 50.5396 207.489 50.2788 207.196C50.0274 206.893 49.9063 206.496 49.9063 206.004C49.9063 205.588 50.0088 205.21 50.223 204.869C50.4465 204.529 50.7724 204.264 51.2101 204.075C51.6571 203.876 52.2065 203.772 52.8677 203.772C53.3147 203.772 53.7524 203.829 54.1901 203.942C54.6371 204.056 55.0189 204.226 55.3448 204.453L54.9723 205.342C54.6464 205.143 54.3018 204.992 53.9293 204.888C53.5662 204.774 53.2123 204.718 52.8677 204.718C52.2345 204.718 51.7595 204.831 51.4522 205.058C51.1402 205.285 50.9866 205.583 50.9866 205.947C50.9866 206.226 51.0704 206.449 51.2473 206.609C51.4336 206.775 51.6571 206.907 51.9178 207.007C52.1786 207.096 52.5325 207.191 52.9795 207.29C53.5475 207.442 54.0085 207.588 54.3577 207.725C54.7162 207.867 55.0189 208.08 55.2703 208.369C55.5311 208.662 55.6615 209.05 55.6615 209.541C55.6615 209.958 55.5497 210.336 55.3262 210.676C55.1027 211.007 54.7675 211.272 54.3205 211.471C53.8735 211.674 53.324 211.774 52.6815 211.774Z" fill="#F9DB3D"/>
<path d="M66.677 204.831H64.0323V203.848H70.4207V204.831H67.7759V211.679H66.677V204.831Z" fill="#F9DB3D"/>
<path d="M84.6571 211.679L82.9809 209.277C82.7806 209.291 82.6177 209.296 82.4966 209.296H80.5969V211.679H79.498V203.848H82.4966C83.5024 203.848 84.2893 204.093 84.862 204.585C85.43 205.068 85.7187 205.734 85.7187 206.59C85.7187 207.186 85.5697 207.697 85.2717 208.123C84.983 208.553 84.5686 208.86 84.0239 209.05L85.8491 211.679H84.6571ZM82.478 208.35C83.1718 208.35 83.6979 208.198 84.0611 207.896C84.4336 207.584 84.6199 207.148 84.6199 206.59C84.6199 206.023 84.4336 205.588 84.0611 205.285C83.6979 204.983 83.1718 204.831 82.478 204.831H80.5969V208.35H82.478Z" fill="#F9DB3D"/>
<path d="M98.5702 211.774C97.5504 211.774 96.7542 211.48 96.1862 210.885C95.6134 210.279 95.3294 209.423 95.3294 208.312V203.848H96.4283V208.255C96.4283 209.934 97.1453 210.771 98.5888 210.771C99.2965 210.771 99.8367 210.572 100.209 210.166C100.582 209.75 100.768 209.116 100.768 208.255V203.848H101.83V208.312C101.83 209.437 101.541 210.293 100.973 210.885C100.4 211.48 99.5992 211.774 98.5702 211.774Z" fill="#F9DB3D"/>
<path d="M115.422 211.774C114.649 211.774 113.955 211.603 113.336 211.263C112.712 210.913 112.223 210.431 111.864 209.825C111.515 209.21 111.343 208.52 111.343 207.763C111.343 207.007 111.515 206.326 111.864 205.72C112.223 205.115 112.712 204.642 113.336 204.302C113.969 203.952 114.667 203.772 115.44 203.772C116.036 203.772 116.581 203.876 117.079 204.075C117.573 204.278 118.001 204.581 118.365 204.983L117.638 205.682C117.065 205.068 116.344 204.756 115.478 204.756C114.905 204.756 114.383 204.888 113.913 205.153C113.452 205.418 113.094 205.777 112.833 206.231C112.572 206.685 112.442 207.196 112.442 207.763C112.442 208.331 112.572 208.851 112.833 209.314C113.094 209.768 113.452 210.128 113.913 210.393C114.383 210.648 114.905 210.771 115.478 210.771C116.334 210.771 117.051 210.459 117.638 209.825L118.365 210.544C118.001 210.951 117.573 211.258 117.079 211.471C116.581 211.674 116.027 211.774 115.422 211.774Z" fill="#F9DB3D"/>
<path d="M129.347 204.831H126.702V203.848H133.09V204.831H130.446V211.679H129.347V204.831Z" fill="#F9DB3D"/>
<path d="M142.168 203.848H143.266V211.679H142.168V203.848Z" fill="#F9DB3D"/>
<path d="M156.954 211.774C156.171 211.774 155.468 211.603 154.849 211.263C154.225 210.913 153.736 210.431 153.378 209.825C153.014 209.21 152.837 208.52 152.837 207.763C152.837 207.007 153.014 206.326 153.378 205.72C153.736 205.115 154.225 204.642 154.849 204.302C155.468 203.952 156.171 203.772 156.954 203.772C157.722 203.772 158.416 203.952 159.04 204.302C159.659 204.642 160.143 205.115 160.492 205.72C160.851 206.326 161.032 207.007 161.032 207.763C161.032 208.52 160.851 209.21 160.492 209.825C160.143 210.431 159.659 210.913 159.04 211.263C158.416 211.603 157.722 211.774 156.954 211.774ZM156.954 210.771C157.512 210.771 158.015 210.648 158.462 210.393C158.918 210.128 159.282 209.768 159.542 209.314C159.803 208.851 159.934 208.331 159.934 207.763C159.934 207.196 159.803 206.685 159.542 206.231C159.282 205.777 158.918 205.418 158.462 205.153C158.015 204.888 157.512 204.756 156.954 204.756C156.381 204.756 155.864 204.888 155.408 205.153C154.947 205.418 154.588 205.777 154.327 206.231C154.067 206.685 153.936 207.196 153.936 207.763C153.936 208.331 154.067 208.851 154.327 209.314C154.588 209.768 154.947 210.128 155.408 210.393C155.864 210.648 156.381 210.771 156.954 210.771Z" fill="#F9DB3D"/>
<path d="M177.231 203.848V211.679H176.318L171.699 205.834V211.679H170.6V203.848H171.513L176.132 209.693V203.848H177.231Z" fill="#F9DB3D"/>
<path d="M198.274 203.848H199.373V211.679H198.274V203.848Z" fill="#F9DB3D"/>
<path d="M216.208 203.848V211.679H215.295L210.676 205.834V211.679H209.577V203.848H210.49L215.109 209.693V203.848H216.208Z" fill="#F9DB3D"/>
<path d="M229.845 211.774C229.072 211.774 228.378 211.603 227.759 211.263C227.135 210.913 226.646 210.431 226.287 209.825C225.938 209.21 225.766 208.52 225.766 207.763C225.766 207.007 225.938 206.326 226.287 205.72C226.646 205.115 227.135 204.642 227.759 204.302C228.392 203.952 229.09 203.772 229.863 203.772C230.459 203.772 231.004 203.876 231.502 204.075C231.996 204.278 232.424 204.581 232.787 204.983L232.061 205.682C231.488 205.068 230.766 204.756 229.9 204.756C229.328 204.756 228.806 204.888 228.336 205.153C227.875 205.418 227.516 205.777 227.256 206.231C226.995 206.685 226.865 207.196 226.865 207.763C226.865 208.331 226.995 208.851 227.256 209.314C227.516 209.768 227.875 210.128 228.336 210.393C228.806 210.648 229.328 210.771 229.9 210.771C230.757 210.771 231.474 210.459 232.061 209.825L232.787 210.544C232.424 210.951 231.996 211.258 231.502 211.471C231.004 211.674 230.45 211.774 229.845 211.774Z" fill="#F9DB3D"/>
<path d="M242.335 211.755C242.135 211.755 241.963 211.679 241.814 211.528C241.665 211.376 241.59 211.197 241.59 210.979C241.59 210.766 241.665 210.591 241.814 210.449C241.963 210.298 242.135 210.222 242.335 210.222C242.545 210.222 242.717 210.293 242.857 210.43C242.992 210.572 243.062 210.752 243.062 210.979C243.062 211.197 242.987 211.376 242.838 211.528C242.699 211.679 242.531 211.755 242.335 211.755Z" fill="#F9DB3D"/>
<defs>
<linearGradient id="paint0_linear_180_2" x1="-16.9625" y1="36.2023" x2="167.413" y2="149.596" gradientUnits="userSpaceOnUse">
<stop stop-color="#4E3A18"/>
<stop offset="0.25" stop-color="#4E3A18"/>
<stop offset="0.375" stop-color="#4E3A18"/>
<stop offset="0.4375" stop-color="#4E3A18"/>
<stop offset="0.445312" stop-color="#4E3A18"/>
<stop offset="0.449219" stop-color="#4F3A18"/>
<stop offset="0.453125" stop-color="#4F3B18"/>
<stop offset="0.457031" stop-color="#503C18"/>
<stop offset="0.460938" stop-color="#523D19"/>
<stop offset="0.464844" stop-color="#533F19"/>
<stop offset="0.46875" stop-color="#544019"/>
<stop offset="0.472656" stop-color="#56411A"/>
<stop offset="0.476562" stop-color="#57421A"/>
<stop offset="0.480469" stop-color="#59431A"/>
<stop offset="0.484375" stop-color="#5A451A"/>
<stop offset="0.488281" stop-color="#5B461B"/>
<stop offset="0.492188" stop-color="#5D471B"/>
<stop offset="0.496094" stop-color="#5E481B"/>
<stop offset="0.5" stop-color="#5F4A1B"/>
<stop offset="0.503906" stop-color="#614B1C"/>
<stop offset="0.507812" stop-color="#624C1C"/>
<stop offset="0.511719" stop-color="#634D1C"/>
<stop offset="0.515625" stop-color="#654E1D"/>
<stop offset="0.519531" stop-color="#66501D"/>
<stop offset="0.523438" stop-color="#67511D"/>
<stop offset="0.527344" stop-color="#69521D"/>
<stop offset="0.53125" stop-color="#6A531E"/>
<stop offset="0.535156" stop-color="#6B551E"/>
<stop offset="0.539062" stop-color="#6D561E"/>
<stop offset="0.542969" stop-color="#6E571E"/>
<stop offset="0.546875" stop-color="#6F581F"/>
<stop offset="0.550781" stop-color="#71591F"/>
<stop offset="0.554688" stop-color="#725B1F"/>
<stop offset="0.558594" stop-color="#735C20"/>
<stop offset="0.5625" stop-color="#755D20"/>
<stop offset="0.566406" stop-color="#765E20"/>
<stop offset="0.570312" stop-color="#786020"/>
<stop offset="0.574219" stop-color="#796121"/>
<stop offset="0.578125" stop-color="#7A6221"/>
<stop offset="0.582031" stop-color="#7C6321"/>
<stop offset="0.585938" stop-color="#7D6421"/>
<stop offset="0.589844" stop-color="#7E6622"/>
<stop offset="0.59375" stop-color="#806722"/>
<stop offset="0.597656" stop-color="#816822"/>
<stop offset="0.601562" stop-color="#826923"/>
<stop offset="0.605469" stop-color="#846B23"/>
<stop offset="0.609375" stop-color="#856C23"/>
<stop offset="0.613281" stop-color="#866D23"/>
<stop offset="0.617188" stop-color="#886E24"/>
<stop offset="0.621094" stop-color="#896F24"/>
<stop offset="0.625" stop-color="#8A7124"/>
<stop offset="0.628906" stop-color="#8C7224"/>
<stop offset="0.632812" stop-color="#8D7325"/>
<stop offset="0.636719" stop-color="#8E7425"/>
<stop offset="0.640625" stop-color="#907625"/>
<stop offset="0.644531" stop-color="#917726"/>
<stop offset="0.648438" stop-color="#927826"/>
<stop offset="0.652344" stop-color="#947926"/>
<stop offset="0.65625" stop-color="#957A26"/>
<stop offset="0.660156" stop-color="#977C27"/>
<stop offset="0.664063" stop-color="#987D27"/>
<stop offset="0.667969" stop-color="#997E27"/>
<stop offset="0.671875" stop-color="#9B7F27"/>
<stop offset="0.675781" stop-color="#9C8028"/>
<stop offset="0.679688" stop-color="#9D8228"/>
<stop offset="0.683594" stop-color="#9F8328"/>
<stop offset="0.6875" stop-color="#A08429"/>
<stop offset="0.691406" stop-color="#A18529"/>
<stop offset="0.695313" stop-color="#A38729"/>
<stop offset="0.699219" stop-color="#A48829"/>
<stop offset="0.703125" stop-color="#A5892A"/>
<stop offset="0.707031" stop-color="#A78A2A"/>
<stop offset="0.710938" stop-color="#A88B2A"/>
<stop offset="0.714844" stop-color="#A98D2A"/>
<stop offset="0.71875" stop-color="#AB8E2B"/>
<stop offset="0.722656" stop-color="#AC8F2B"/>
<stop offset="0.726563" stop-color="#AD902B"/>
<stop offset="0.730469" stop-color="#AF922C"/>
<stop offset="0.734375" stop-color="#B0932C"/>
<stop offset="0.738281" stop-color="#B1942C"/>
<stop offset="0.742188" stop-color="#B3952C"/>
<stop offset="0.746094" stop-color="#B4962D"/>
<stop offset="0.75" stop-color="#B5982D"/>
<stop offset="0.753906" stop-color="#B7992D"/>
<stop offset="0.757812" stop-color="#B89A2D"/>
<stop offset="0.761719" stop-color="#BA9B2E"/>
<stop offset="0.765625" stop-color="#BB9D2E"/>
<stop offset="0.769531" stop-color="#BC9E2E"/>
<stop offset="0.773437" stop-color="#BE9F2F"/>
<stop offset="0.777344" stop-color="#BFA02F"/>
<stop offset="0.78125" stop-color="#C0A12F"/>
<stop offset="0.785156" stop-color="#C2A32F"/>
<stop offset="0.789062" stop-color="#C3A430"/>
<stop offset="0.792969" stop-color="#C4A530"/>
<stop offset="0.796875" stop-color="#C6A630"/>
<stop offset="0.800781" stop-color="#C7A830"/>
<stop offset="0.804687" stop-color="#C8A931"/>
<stop offset="0.808594" stop-color="#CAAA31"/>
<stop offset="0.8125" stop-color="#CBAB31"/>
<stop offset="0.816406" stop-color="#CCAC32"/>
<stop offset="0.820312" stop-color="#CEAE32"/>
<stop offset="0.824219" stop-color="#CFAF32"/>
<stop offset="0.828125" stop-color="#D0B032"/>
<stop offset="0.832031" stop-color="#D2B133"/>
<stop offset="0.835937" stop-color="#D3B333"/>
<stop offset="0.839844" stop-color="#D4B433"/>
<stop offset="0.84375" stop-color="#D6B533"/>
<stop offset="0.847656" stop-color="#D7B634"/>
<stop offset="0.851562" stop-color="#D9B734"/>
<stop offset="0.855469" stop-color="#DAB934"/>
<stop offset="0.859375" stop-color="#DBBA35"/>
<stop offset="0.863281" stop-color="#DDBB35"/>
<stop offset="0.867188" stop-color="#DEBC35"/>
<stop offset="0.871094" stop-color="#DFBE35"/>
<stop offset="0.875" stop-color="#E1BF36"/>
<stop offset="0.878906" stop-color="#E2C036"/>
<stop offset="0.882812" stop-color="#E3C136"/>
<stop offset="0.886719" stop-color="#E5C236"/>
<stop offset="0.890625" stop-color="#E6C437"/>
<stop offset="0.894531" stop-color="#E7C537"/>
<stop offset="0.898438" stop-color="#E9C637"/>
<stop offset="0.902344" stop-color="#EAC738"/>
<stop offset="0.90625" stop-color="#EBC938"/>
<stop offset="0.910156" stop-color="#ECC938"/>
<stop offset="0.914062" stop-color="#EDCA38"/>
<stop offset="0.921875" stop-color="#EDCA38"/>
<stop offset="0.9375" stop-color="#EDCA38"/>
<stop offset="1" stop-color="#EDCA38"/>
</linearGradient>
</defs>
</svg>
