<svg width="48" height="47" viewBox="0 0 48 47" fill="none" xmlns="http://www.w3.org/2000/svg">
<path d="M16 18.4578C16 18.7893 16.1317 19.1073 16.3661 19.3417C16.6005 19.5761 16.9185 19.7078 17.25 19.7078C17.5815 19.7078 17.8995 19.5761 18.1339 19.3417C18.3683 19.1073 18.5 18.7893 18.5 18.4578V15.9578C18.5 15.6263 18.3683 15.3083 18.1339 15.0739C17.8995 14.8395 17.5815 14.7078 17.25 14.7078C16.9185 14.7078 16.6005 14.8395 16.3661 15.0739C16.1317 15.3083 16 15.6263 16 15.9578V18.4578ZM16 18.4578C16 21.773 17.317 24.9524 19.6612 27.2966C22.0054 29.6408 25.1848 30.9578 28.5 30.9578M28.5 30.9578H31C31.3315 30.9578 31.6495 30.8261 31.8839 30.5917C32.1183 30.3573 32.25 30.0393 32.25 29.7078C32.25 29.3763 32.1183 29.0583 31.8839 28.8239C31.6495 28.5895 31.3315 28.4578 31 28.4578H28.5C28.1685 28.4578 27.8505 28.5895 27.6161 28.8239C27.3817 29.0583 27.25 29.3763 27.25 29.7078C27.25 30.0393 27.3817 30.3573 27.6161 30.5917C27.8505 30.8261 28.1685 30.9578 28.5 30.9578ZM1 45.9578L5.125 36.4578C1.96916 31.978 0.556668 26.5004 1.15261 21.0531C1.74856 15.6058 4.31196 10.5632 8.36177 6.87161C12.4116 3.18006 17.6694 1.09334 23.1485 1.00306C28.6275 0.912771 33.9512 2.82513 38.1205 6.38124C42.2897 9.93735 45.0179 14.8928 45.7929 20.3175C46.568 25.7422 45.3368 31.2633 42.3303 35.8447C39.3237 40.4261 34.7486 43.7529 29.4635 45.2006C24.1784 46.6483 18.5466 46.1175 13.625 43.7078L1 45.9578Z" stroke="#ECC938" stroke-width="2" stroke-linecap="round" stroke-linejoin="round"/>
</svg>
