<svg width="240" height="169" viewBox="0 0 240 169" fill="none" xmlns="http://www.w3.org/2000/svg">
<path d="M183.861 84.0231L172.258 81.7389V35.7903C172.258 35.1235 172.877 34.6317 173.515 34.7877L182.916 37.1334C183.368 37.2469 183.689 37.6584 183.689 38.136C183.745 55.719 183.805 66.2178 183.861 84.0231Z" fill="#4E3A18"/>
<path d="M88.52 86.3168L70.9147 94.9711V8.4132C70.9147 7.75112 71.52 7.25928 72.1579 7.40589C77.2611 8.60237 82.3644 9.79885 87.4723 10.9953C87.9286 11.1041 88.2545 11.5203 88.2592 12.0026C88.343 40.5857 88.4315 57.5067 88.52 86.3168ZM138.859 25.7598C138.854 25.2727 138.514 24.8471 138.039 24.7525C134.282 23.9863 130.519 23.225 126.757 22.4588C126.128 22.3311 125.546 22.8182 125.546 23.4709V76.1632L139.059 74.9053C138.994 55.8373 138.924 44.6008 138.859 25.7598Z" fill="#4E3A18"/>
<mask id="mask0_185_165" style="mask-type:luminance" maskUnits="userSpaceOnUse" x="36" y="0" width="180" height="101">
<path d="M36.356 0H215.156V100.788H36.356V0Z" fill="white"/>
</mask>
<g mask="url(#mask0_185_165)">
<path d="M152.082 78.7406C157.619 79.729 161.595 80.8357 165.446 81.9044C170.209 83.2286 174.712 84.4818 181.766 85.4702C187.768 86.312 193.858 86.6998 199.874 86.6336C200.68 86.6242 201.332 85.9479 201.322 85.125C201.313 84.3069 200.656 83.6542 199.855 83.6542C199.851 83.6542 199.842 83.6542 199.837 83.6542C196.075 83.7015 192.28 83.5597 188.494 83.2333V34.7405C188.494 34.7074 188.485 34.679 188.485 34.6459C188.48 34.5939 188.476 34.5371 188.466 34.4851C188.462 34.4378 188.448 34.3952 188.434 34.3479C188.424 34.3007 188.41 34.2534 188.392 34.2108C188.373 34.1635 188.355 34.1209 188.331 34.0784C188.313 34.0358 188.289 33.9933 188.266 33.9554C188.243 33.9129 188.215 33.875 188.187 33.8372C188.154 33.7994 188.126 33.7615 188.094 33.7284C188.061 33.6906 188.029 33.6622 187.996 33.6291C187.959 33.596 187.922 33.5676 187.884 33.5393C187.847 33.5109 187.805 33.4825 187.763 33.4589C187.721 33.4352 187.684 33.4116 187.642 33.3927C187.591 33.369 187.544 33.3548 187.493 33.3359C187.461 33.3264 187.437 33.3123 187.405 33.3028L169.557 28.4649C169.054 28.3277 168.547 28.4743 168.193 28.8054C168.114 28.8432 168.035 28.8858 167.956 28.9378L158.359 35.9038C158.354 35.9038 158.354 35.9038 158.354 35.9038C158.354 35.9086 158.354 35.9086 158.354 35.9086H158.35C158.056 36.1261 157.865 36.4335 157.786 36.7693C157.768 36.8308 157.758 36.897 157.754 36.9632C157.744 37.0199 157.744 37.0767 157.744 37.1334V76.8442C156.166 76.4895 154.466 76.1396 152.585 75.8085C150.518 75.4397 147.678 74.9337 144.209 74.5317V21.5792C144.209 21.5745 144.209 21.5745 144.209 21.5745V21.5603C144.209 21.5319 144.199 21.5035 144.199 21.4799C144.195 21.4089 144.19 21.338 144.176 21.2718C144.171 21.2292 144.153 21.1867 144.139 21.1441C144.125 21.0968 144.116 21.0448 144.097 20.9975C144.078 20.9502 144.05 20.9077 144.027 20.8651C144.008 20.8225 143.99 20.78 143.962 20.7421C143.939 20.7043 143.906 20.6665 143.878 20.6334C143.845 20.5955 143.818 20.553 143.785 20.5199C143.757 20.4868 143.72 20.4584 143.687 20.43C143.645 20.3969 143.613 20.3638 143.571 20.3354C143.529 20.3071 143.482 20.2834 143.44 20.2598C143.398 20.2361 143.361 20.2125 143.324 20.1936C143.259 20.1699 143.194 20.151 143.128 20.1321C143.105 20.1226 143.077 20.1132 143.049 20.1037H143.04C143.035 20.1037 143.035 20.1037 143.035 20.1037L122.115 15.5164C122.105 15.5117 122.091 15.5117 122.077 15.5117C122.026 15.5022 121.97 15.4975 121.915 15.4928C121.873 15.488 121.831 15.4833 121.789 15.4833C121.738 15.4833 121.691 15.4928 121.64 15.4975C121.593 15.5022 121.551 15.5069 121.505 15.5164C121.458 15.5259 121.412 15.5401 121.365 15.559C121.323 15.5732 121.277 15.5826 121.235 15.6015C121.193 15.6204 121.156 15.6441 121.114 15.6677C121.067 15.6914 121.021 15.715 120.979 15.7434C120.969 15.7529 120.955 15.7576 120.946 15.7671L109.24 24.4262H109.236C109.236 24.4309 109.236 24.4309 109.236 24.4309H109.231C108.938 24.6532 108.747 24.9653 108.672 25.3058C108.672 25.3058 108.672 25.3058 108.672 25.3105C108.658 25.3625 108.649 25.4146 108.644 25.4713C108.64 25.5281 108.635 25.5895 108.635 25.651V77.0523C102.042 78.769 96.9663 80.7836 93.9165 82.0227V7.63761C93.9165 7.59978 93.9072 7.56668 93.9072 7.53357C93.9025 7.47682 93.8979 7.42007 93.8886 7.36805C93.8792 7.32076 93.8653 7.2782 93.856 7.23091C93.842 7.18361 93.828 7.13632 93.8094 7.09376C93.7908 7.04647 93.7722 7.00391 93.7489 6.96134C93.7256 6.91878 93.707 6.87622 93.6837 6.83838C93.6557 6.79582 93.6278 6.75799 93.5999 6.72488C93.5673 6.68232 93.5393 6.64449 93.5067 6.61138C93.4742 6.57828 93.4416 6.54991 93.409 6.5168C93.3717 6.4837 93.3345 6.45059 93.2926 6.42222C93.2553 6.39384 93.2134 6.3702 93.1715 6.34655C93.1296 6.32291 93.0923 6.29926 93.0504 6.28034C92.9992 6.2567 92.948 6.24251 92.8921 6.22359C92.8595 6.21413 92.8316 6.19995 92.799 6.19049L68.2559 0.0804054C68.0464 0.0283842 67.8415 0.0283845 67.6413 0.0662179C67.2641 -0.00944881 66.859 0.0662179 66.5191 0.312135L47.4378 14.1591C47.4378 14.1591 47.4378 14.1591 47.4331 14.1591V14.1639C47.4285 14.1639 47.4285 14.1639 47.4285 14.1639C47.4285 14.1639 47.4238 14.1639 47.4238 14.1686C47.1258 14.3909 46.9349 14.7077 46.8604 15.0482C46.8511 15.0908 46.8418 15.1381 46.8371 15.1806C46.8278 15.2516 46.8232 15.3178 46.8232 15.3887V96.8439C43.8618 96.9999 40.8865 97.0189 37.9391 96.8912C37.1242 96.8486 36.4491 97.4918 36.4118 98.3147C36.3792 99.1328 37.0031 99.828 37.8133 99.8658C39.1776 99.9226 40.5466 99.9557 41.9201 99.9557C44.97 99.9557 48.0245 99.8091 51.0511 99.5111L51.7448 99.4449C55.9122 99.0524 63.6742 98.3147 73.2381 94.6306C79.7894 92.1005 82.9603 90.4832 86.0288 88.9178C88.4454 87.6882 90.7223 86.5248 94.5591 84.9689C99.7415 82.8645 111.88 77.9367 127.702 77.0003C138.696 76.3571 147.072 77.8468 152.082 78.7406ZM160.678 76.1727C160.682 76.168 160.692 76.1632 160.701 76.1585L170.009 69.6654C170.675 69.2019 170.842 68.2703 170.386 67.594C169.925 66.9177 169.012 66.7427 168.347 67.2109L160.678 72.5643V67.1211L170.009 60.6137C170.675 60.1455 170.842 59.2186 170.386 58.5424C169.925 57.8614 169.012 57.6911 168.347 58.1546L160.678 63.508V57.6911L170.009 51.179C170.675 50.7156 170.842 49.7887 170.386 49.1124C169.925 48.4314 169.012 48.2612 168.347 48.7246L160.678 54.078V48.0483C160.692 48.0342 160.71 48.0294 160.729 48.0152L170.009 41.541C170.675 41.0775 170.842 40.1506 170.386 39.4696C169.925 38.7934 169.012 38.6184 168.347 39.0866L160.678 44.44V37.8806L169.45 31.5152L185.561 35.8849V82.9401C184.429 82.8172 183.298 82.68 182.171 82.5192C175.303 81.5592 170.889 80.3296 166.219 79.0291C164.445 78.5373 162.643 78.036 160.678 77.5442V76.1727ZM84.7111 86.26C81.7125 87.7875 78.6067 89.3718 72.1997 91.8452C64.4285 94.8387 57.8725 95.8082 53.5934 96.2669L67.7437 86.3972C68.4096 85.9337 68.5772 85.0068 68.1209 84.3258C67.6599 83.6495 66.7473 83.4793 66.0814 83.9427L49.7566 95.3353V85.1061L67.7623 72.5454C68.4282 72.0772 68.5958 71.1503 68.1395 70.474C67.6785 69.7978 66.7659 69.6228 66.1001 70.091L49.7566 81.493V71.3442L68.0277 58.5991C68.6936 58.1309 68.8659 57.204 68.4049 56.5277C67.9486 55.8467 67.036 55.6765 66.3655 56.1399L49.7566 67.7311V57.4452L67.9765 44.7332C68.647 44.265 68.8146 43.3381 68.3583 42.6618C67.8974 41.9808 66.9847 41.8106 66.3189 42.274L49.7566 53.8321V43.5131L68.0045 30.7822C68.6703 30.3187 68.8379 29.3918 68.3816 28.7108C67.9206 28.0345 67.0127 27.8643 66.3422 28.3277L49.7566 39.9V29.7228L68.051 16.9541C68.7215 16.4906 68.8891 15.5637 68.4328 14.8827C67.9719 14.2064 67.0592 14.0362 66.3934 14.4996L49.7566 26.1097V16.1359L67.8136 3.03613L90.9831 8.80572V83.2475C88.4407 84.3542 86.6155 85.2858 84.7111 86.26ZM111.568 76.3382V74.2527L122.636 66.5299C123.307 66.0617 123.474 65.1348 123.018 64.4585C122.557 63.7775 121.644 63.6073 120.979 64.0708L111.568 70.6396V62.0845L122.636 54.357C123.307 53.8936 123.474 52.9667 123.018 52.2857C122.557 51.6094 121.644 51.4392 120.979 51.9026L111.568 58.4667V49.8833L122.636 42.1605C123.307 41.6923 123.474 40.7654 123.018 40.0892C122.557 39.4082 121.644 39.2379 120.979 39.7014L111.568 46.2702V37.8192H111.573L122.636 30.0964C123.307 29.6282 123.474 28.7013 123.018 28.0251C122.557 27.3488 121.644 27.1738 120.979 27.642L111.568 34.2061V26.3888L122.138 18.5667L141.275 22.7615V74.2337C137.294 73.8885 132.661 73.7277 127.535 74.0304C121.658 74.3756 116.29 75.2552 111.568 76.3382ZM213.74 100.107C209.983 100.504 206.239 100.703 202.524 100.703C198.067 100.703 193.658 100.419 189.332 99.8469C182.464 98.9342 178.334 97.7661 172.621 96.144C168.761 95.0468 163.951 93.6848 156.967 92.0391L156.836 92.0059C149.251 90.2183 142.09 88.53 133.807 88.2132C122.669 87.7875 111.401 89.7927 100.328 94.1766C99.5738 94.4746 98.7264 94.0962 98.4284 93.3301C98.1351 92.564 98.5076 91.7033 99.2619 91.4006C110.712 86.8701 122.371 84.794 133.918 85.2385C142.481 85.5648 149.778 87.2862 157.498 89.107L157.633 89.1353C164.678 90.7953 169.52 92.1715 173.413 93.2734C179.009 94.8624 183.051 96.0116 189.71 96.8912C197.416 97.9127 205.401 97.9978 213.433 97.1466C214.248 97.0614 214.96 97.6526 215.044 98.4707C215.128 99.2889 214.546 100.022 213.74 100.107Z" fill="#EDCA38"/>
</g>
<mask id="mask1_185_165" style="mask-type:luminance" maskUnits="userSpaceOnUse" x="0" y="2" width="167" height="144">
<path d="M0 2.82806H166.88V145.687H0V2.82806Z" fill="white"/>
</mask>
<g mask="url(#mask1_185_165)">
<mask id="mask2_185_165" style="mask-type:luminance" maskUnits="userSpaceOnUse" x="-34" y="2" width="202" height="179">
<path d="M16.0827 2.96994L167.732 99.1801L117.999 180.039L-33.6461 83.8292L16.0827 2.96994Z" fill="white"/>
</mask>
<g mask="url(#mask2_185_165)">
<mask id="mask3_185_165" style="mask-type:luminance" maskUnits="userSpaceOnUse" x="-34" y="2" width="202" height="178">
<path d="M-33.5436 83.6637L118.101 179.869L167.835 99.0098L16.1898 2.79968L-33.5436 83.6637Z" fill="white"/>
</mask>
<g mask="url(#mask3_185_165)">
<mask id="mask4_185_165" style="mask-type:luminance" maskUnits="userSpaceOnUse" x="0" y="3" width="167" height="143">
<path d="M17.1489 3.64146C10.0062 12.9343 4.92162 24.0573 2.28618 35.8518C0.963805 41.8295 0.260711 47.8828 0.176899 54.0071C0.0977416 60.1314 0.637867 66.1989 1.80193 72.2097C3.56665 81.3795 6.6584 90.0575 11.0725 98.2485C11.8082 99.601 12.5765 100.944 13.3774 102.268C14.1782 103.588 15.0117 104.888 15.8824 106.165C19.37 111.301 23.3417 116.021 27.7885 120.324C30.0095 122.471 32.333 124.5 34.7542 126.411C37.1755 128.321 39.6945 130.099 42.2834 131.755C44.8769 133.41 47.5636 134.909 50.3107 136.29C53.0579 137.671 55.8796 138.891 58.7525 139.983C61.6254 141.062 64.5496 141.993 67.5156 142.774C70.4816 143.554 73.4756 144.173 76.5068 144.637C78.0201 144.869 79.5334 145.062 81.056 145.214C82.5739 145.365 84.1011 145.474 85.6237 145.55C94.8105 145.989 103.844 145.006 112.728 142.599C118.557 141.024 124.164 138.858 129.551 136.096C134.933 133.334 139.981 130.038 144.688 126.207C153.973 118.622 161.581 109.102 166.666 98.5038C163.132 103.115 159.244 107.39 155.002 111.344C150.825 115.217 146.341 118.678 141.541 121.719C132.037 127.754 121.78 131.849 110.772 134.006C99.9324 136.124 89.0833 136.172 78.2296 134.148C72.8842 133.14 67.6832 131.636 62.6219 129.631C60.1028 128.633 57.6304 127.522 55.2091 126.283C52.7879 125.049 50.4272 123.706 48.127 122.254C45.8314 120.792 43.6011 119.232 41.4499 117.562C39.2987 115.898 37.222 114.129 35.2338 112.266C31.2387 108.525 27.6255 104.439 24.3941 100.003C17.8381 90.9797 13.1166 81.0579 10.2344 70.2376C7.31493 59.2423 6.43956 48.0814 7.60827 36.7551C8.19496 31.0423 9.29384 25.4287 10.8909 19.9145C12.5299 14.3152 14.6159 8.89084 17.1489 3.64146Z" fill="white"/>
</mask>
<g mask="url(#mask4_185_165)">
<path d="M-62.8734 106.037L46.8465 -72.3704L229.642 43.5935L119.917 222.006L-62.8734 106.037Z" fill="url(#paint0_linear_185_165)"/>
</g>
</g>
</g>
</g>
<defs>
<linearGradient id="paint0_linear_185_165" x1="-19.9268" y1="36.2022" x2="164.448" y2="149.596" gradientUnits="userSpaceOnUse">
<stop stop-color="#4E3A18"/>
<stop offset="0.25" stop-color="#4E3A18"/>
<stop offset="0.375" stop-color="#4E3A18"/>
<stop offset="0.4375" stop-color="#4E3A18"/>
<stop offset="0.445312" stop-color="#4E3A18"/>
<stop offset="0.449219" stop-color="#4F3A18"/>
<stop offset="0.453125" stop-color="#4F3B18"/>
<stop offset="0.457031" stop-color="#503C18"/>
<stop offset="0.460938" stop-color="#523D19"/>
<stop offset="0.464844" stop-color="#533F19"/>
<stop offset="0.46875" stop-color="#544019"/>
<stop offset="0.472656" stop-color="#56411A"/>
<stop offset="0.476562" stop-color="#57421A"/>
<stop offset="0.480469" stop-color="#59431A"/>
<stop offset="0.484375" stop-color="#5A451A"/>
<stop offset="0.488281" stop-color="#5B461B"/>
<stop offset="0.492188" stop-color="#5D471B"/>
<stop offset="0.496094" stop-color="#5E481B"/>
<stop offset="0.5" stop-color="#5F4A1B"/>
<stop offset="0.503906" stop-color="#614B1C"/>
<stop offset="0.507812" stop-color="#624C1C"/>
<stop offset="0.511719" stop-color="#634D1C"/>
<stop offset="0.515625" stop-color="#654E1D"/>
<stop offset="0.519531" stop-color="#66501D"/>
<stop offset="0.523438" stop-color="#67511D"/>
<stop offset="0.527344" stop-color="#69521D"/>
<stop offset="0.53125" stop-color="#6A531E"/>
<stop offset="0.535156" stop-color="#6B551E"/>
<stop offset="0.539062" stop-color="#6D561E"/>
<stop offset="0.542969" stop-color="#6E571E"/>
<stop offset="0.546875" stop-color="#6F581F"/>
<stop offset="0.550781" stop-color="#71591F"/>
<stop offset="0.554688" stop-color="#725B1F"/>
<stop offset="0.558594" stop-color="#735C20"/>
<stop offset="0.5625" stop-color="#755D20"/>
<stop offset="0.566406" stop-color="#765E20"/>
<stop offset="0.570312" stop-color="#786020"/>
<stop offset="0.574219" stop-color="#796121"/>
<stop offset="0.578125" stop-color="#7A6221"/>
<stop offset="0.582031" stop-color="#7C6321"/>
<stop offset="0.585938" stop-color="#7D6421"/>
<stop offset="0.589844" stop-color="#7E6622"/>
<stop offset="0.59375" stop-color="#806722"/>
<stop offset="0.597656" stop-color="#816822"/>
<stop offset="0.601562" stop-color="#826923"/>
<stop offset="0.605469" stop-color="#846B23"/>
<stop offset="0.609375" stop-color="#856C23"/>
<stop offset="0.613281" stop-color="#866D23"/>
<stop offset="0.617188" stop-color="#886E24"/>
<stop offset="0.621094" stop-color="#896F24"/>
<stop offset="0.625" stop-color="#8A7124"/>
<stop offset="0.628906" stop-color="#8C7224"/>
<stop offset="0.632812" stop-color="#8D7325"/>
<stop offset="0.636719" stop-color="#8E7425"/>
<stop offset="0.640625" stop-color="#907625"/>
<stop offset="0.644531" stop-color="#917726"/>
<stop offset="0.648438" stop-color="#927826"/>
<stop offset="0.652344" stop-color="#947926"/>
<stop offset="0.65625" stop-color="#957A26"/>
<stop offset="0.660156" stop-color="#977C27"/>
<stop offset="0.664063" stop-color="#987D27"/>
<stop offset="0.667969" stop-color="#997E27"/>
<stop offset="0.671875" stop-color="#9B7F27"/>
<stop offset="0.675781" stop-color="#9C8028"/>
<stop offset="0.679688" stop-color="#9D8228"/>
<stop offset="0.683594" stop-color="#9F8328"/>
<stop offset="0.6875" stop-color="#A08429"/>
<stop offset="0.691406" stop-color="#A18529"/>
<stop offset="0.695313" stop-color="#A38729"/>
<stop offset="0.699219" stop-color="#A48829"/>
<stop offset="0.703125" stop-color="#A5892A"/>
<stop offset="0.707031" stop-color="#A78A2A"/>
<stop offset="0.710938" stop-color="#A88B2A"/>
<stop offset="0.714844" stop-color="#A98D2A"/>
<stop offset="0.71875" stop-color="#AB8E2B"/>
<stop offset="0.722656" stop-color="#AC8F2B"/>
<stop offset="0.726563" stop-color="#AD902B"/>
<stop offset="0.730469" stop-color="#AF922C"/>
<stop offset="0.734375" stop-color="#B0932C"/>
<stop offset="0.738281" stop-color="#B1942C"/>
<stop offset="0.742188" stop-color="#B3952C"/>
<stop offset="0.746094" stop-color="#B4962D"/>
<stop offset="0.75" stop-color="#B5982D"/>
<stop offset="0.753906" stop-color="#B7992D"/>
<stop offset="0.757812" stop-color="#B89A2D"/>
<stop offset="0.761719" stop-color="#BA9B2E"/>
<stop offset="0.765625" stop-color="#BB9D2E"/>
<stop offset="0.769531" stop-color="#BC9E2E"/>
<stop offset="0.773437" stop-color="#BE9F2F"/>
<stop offset="0.777344" stop-color="#BFA02F"/>
<stop offset="0.78125" stop-color="#C0A12F"/>
<stop offset="0.785156" stop-color="#C2A32F"/>
<stop offset="0.789062" stop-color="#C3A430"/>
<stop offset="0.792969" stop-color="#C4A530"/>
<stop offset="0.796875" stop-color="#C6A630"/>
<stop offset="0.800781" stop-color="#C7A830"/>
<stop offset="0.804687" stop-color="#C8A931"/>
<stop offset="0.808594" stop-color="#CAAA31"/>
<stop offset="0.8125" stop-color="#CBAB31"/>
<stop offset="0.816406" stop-color="#CCAC32"/>
<stop offset="0.820312" stop-color="#CEAE32"/>
<stop offset="0.824219" stop-color="#CFAF32"/>
<stop offset="0.828125" stop-color="#D0B032"/>
<stop offset="0.832031" stop-color="#D2B133"/>
<stop offset="0.835937" stop-color="#D3B333"/>
<stop offset="0.839844" stop-color="#D4B433"/>
<stop offset="0.84375" stop-color="#D6B533"/>
<stop offset="0.847656" stop-color="#D7B634"/>
<stop offset="0.851562" stop-color="#D9B734"/>
<stop offset="0.855469" stop-color="#DAB934"/>
<stop offset="0.859375" stop-color="#DBBA35"/>
<stop offset="0.863281" stop-color="#DDBB35"/>
<stop offset="0.867188" stop-color="#DEBC35"/>
<stop offset="0.871094" stop-color="#DFBE35"/>
<stop offset="0.875" stop-color="#E1BF36"/>
<stop offset="0.878906" stop-color="#E2C036"/>
<stop offset="0.882812" stop-color="#E3C136"/>
<stop offset="0.886719" stop-color="#E5C236"/>
<stop offset="0.890625" stop-color="#E6C437"/>
<stop offset="0.894531" stop-color="#E7C537"/>
<stop offset="0.898438" stop-color="#E9C637"/>
<stop offset="0.902344" stop-color="#EAC738"/>
<stop offset="0.90625" stop-color="#EBC938"/>
<stop offset="0.910156" stop-color="#ECC938"/>
<stop offset="0.914062" stop-color="#EDCA38"/>
<stop offset="0.921875" stop-color="#EDCA38"/>
<stop offset="0.9375" stop-color="#EDCA38"/>
<stop offset="1" stop-color="#EDCA38"/>
</linearGradient>
</defs>
</svg>
